<svg width="142" height="28" viewBox="0 0 142 28" fill="none" xmlns="http://www.w3.org/2000/svg">
<g clip-path="url(#clip0_141_2214)">
<path fill-rule="evenodd" clip-rule="evenodd" d="M137.849 21.279C137.935 22.2539 138.715 23.4946 140.066 23.4946H140.856C141.162 23.4946 141.414 23.2435 141.414 22.9369V5.55312H141.41C141.394 5.26027 141.152 5.0257 140.856 5.0257H138.407C138.111 5.0257 137.869 5.26027 137.852 5.55312H137.849V6.96566C136.349 5.11591 133.983 4.34814 131.61 4.34814C126.217 4.34814 121.845 8.72327 121.845 14.1206C121.845 19.5182 126.217 23.8934 131.61 23.8934V23.894C133.983 23.894 136.568 22.9728 137.849 21.2767L137.849 21.279ZM131.62 20.4732C128.19 20.4732 125.409 17.6293 125.409 14.1206C125.409 10.6125 128.19 7.76846 131.62 7.76846C135.049 7.76846 137.83 10.6125 137.83 14.1206C137.83 17.6293 135.049 20.4732 131.62 20.4732Z" fill="#0D0E10"/>
<path fill-rule="evenodd" clip-rule="evenodd" d="M118.749 21.8769L118.748 12.8815H118.748C118.748 7.81086 115.552 4.39014 110.455 4.39014C108.021 4.39014 106.027 5.79823 105.322 7.0078C105.17 6.06201 104.668 5.06785 103.112 5.06785H102.319C102.013 5.06785 101.762 5.31917 101.762 5.62583V21.3225C101.762 21.3229 101.762 21.3242 101.762 21.3249V23.011H101.765C101.781 23.3034 102.023 23.5383 102.32 23.5383H104.769C104.806 23.5383 104.843 23.5338 104.879 23.5269C104.895 23.5238 104.91 23.5174 104.926 23.5129C104.944 23.5074 104.963 23.503 104.98 23.4959C105.002 23.4869 105.022 23.4747 105.042 23.4634C105.052 23.4573 105.062 23.4531 105.072 23.4466C105.096 23.4309 105.119 23.4119 105.14 23.3925C105.144 23.3889 105.148 23.3866 105.152 23.3833C105.176 23.3597 105.198 23.3337 105.218 23.3067C105.218 23.3063 105.218 23.3063 105.218 23.3063C105.28 23.222 105.317 23.1206 105.323 23.011H105.326V12.742C105.326 10.0187 107.532 7.81086 110.254 7.81086C112.975 7.81086 115.181 10.0187 115.181 12.742L115.183 21.3255L115.184 21.3225C115.184 21.3302 115.185 21.3379 115.185 21.3461V23.011H115.189C115.205 23.3034 115.447 23.5383 115.743 23.5383H118.192C118.23 23.5383 118.266 23.5338 118.302 23.5269C118.316 23.5242 118.33 23.5184 118.344 23.5144C118.364 23.5086 118.384 23.5035 118.404 23.4959C118.424 23.4876 118.442 23.476 118.461 23.4654C118.473 23.4589 118.485 23.4541 118.496 23.4466C118.518 23.4318 118.539 23.4139 118.559 23.3961C118.565 23.3913 118.57 23.3877 118.575 23.3828C118.599 23.3604 118.619 23.3363 118.638 23.3109C118.639 23.309 118.641 23.3074 118.642 23.3056C118.703 23.222 118.74 23.1213 118.746 23.0126C118.746 23.0118 118.746 23.011 118.746 23.011H118.75V21.8771L118.749 21.8769Z" fill="#0D0E10"/>
<path fill-rule="evenodd" clip-rule="evenodd" d="M93.2411 21.279C93.3268 22.2539 94.1066 23.4946 95.4574 23.4946H96.2479C96.5543 23.4946 96.8051 23.2435 96.8051 22.9369V5.55312H96.8019C96.786 5.26027 96.5437 5.0257 96.2479 5.0257H93.7986C93.5025 5.0257 93.2605 5.26027 93.244 5.55312H93.2411V6.96566C91.7403 5.11591 89.3744 4.34814 87.0018 4.34814C81.609 4.34814 77.2373 8.72327 77.2373 14.1206C77.2373 19.5182 81.609 23.8934 87.0018 23.8934V23.894C89.3744 23.894 91.9602 22.9728 93.2409 21.2767L93.2411 21.279ZM87.0113 20.4732C83.5817 20.4732 80.8011 17.6293 80.8011 14.1206C80.8011 10.6125 83.5817 7.76846 87.0113 7.76846C90.4413 7.76846 93.2213 10.6125 93.2213 14.1206C93.2213 17.6293 90.4413 20.4732 87.0113 20.4732Z" fill="#0D0E10"/>
<path fill-rule="evenodd" clip-rule="evenodd" d="M62.753 18.7892C64.388 19.9228 66.1728 20.4733 67.8879 20.4733C69.5218 20.4733 71.211 19.6257 71.211 18.1502C71.211 16.1803 67.5302 15.8738 65.2175 15.0872C62.9046 14.3006 60.9125 12.6746 60.9125 10.0413C60.9125 6.01205 64.4999 4.3479 67.8481 4.3479C69.9696 4.3479 72.1586 5.04801 73.5777 6.05092C74.0664 6.42153 73.7687 6.84701 73.7687 6.84701L72.4141 8.78326C72.2618 9.00135 71.9957 9.18977 71.6134 8.95372C71.2313 8.71782 69.8909 7.76833 67.8481 7.76833C65.8053 7.76833 64.5747 8.71249 64.5747 9.88275C64.5747 11.2861 66.1741 11.7275 68.0474 12.2058C71.3119 13.0864 74.8732 14.1449 74.8732 18.1502C74.8732 21.7004 71.555 23.8943 67.8879 23.8943C65.1088 23.8943 62.7428 23.1014 60.7583 21.6441C60.345 21.23 60.6337 20.8457 60.6337 20.8457L61.9817 18.9192C62.2559 18.559 62.6018 18.6846 62.753 18.7892Z" fill="#0D0E10"/>
<path fill-rule="evenodd" clip-rule="evenodd" d="M53.3372 21.279C53.4229 22.2539 54.2027 23.4946 55.5536 23.4946H56.3441C56.6504 23.4946 56.9015 23.2435 56.9015 22.9369V5.55312H56.8981C56.8822 5.26027 56.6402 5.0257 56.3441 5.0257H53.8948C53.5987 5.0257 53.3567 5.26027 53.3402 5.55312H53.3372V6.96566C51.8367 5.11591 49.4706 4.34814 47.0981 4.34814C41.7053 4.34814 37.3335 8.72327 37.3335 14.1206C37.3335 19.5182 41.7053 23.8934 47.0981 23.8934V23.894C49.4706 23.894 52.0563 22.9728 53.3369 21.2767L53.3372 21.279ZM47.1078 20.4732C43.6779 20.4732 40.8973 17.6293 40.8973 14.1206C40.8973 10.6125 43.6779 7.76846 47.1078 7.76846C50.5375 7.76846 53.3177 10.6125 53.3177 14.1206C53.3177 17.6293 50.5375 20.4732 47.1078 20.4732Z" fill="#0D0E10"/>
<path fill-rule="evenodd" clip-rule="evenodd" d="M23.6435 14.7854C20.0143 14.7854 17.0723 17.7275 17.0723 21.3569C17.0723 24.9862 20.0143 27.9283 23.6435 27.9283C27.2728 27.9283 30.2148 24.9862 30.2148 21.3569C30.2148 17.7275 27.2728 14.7854 23.6435 14.7854ZM6.57079 14.786C2.9416 14.786 -0.000488281 17.7275 -0.000488281 21.3569C-0.000488281 24.9862 2.9416 27.9283 6.57079 27.9283C10.2001 27.9283 13.1424 24.9862 13.1424 21.3569C13.1424 17.7275 10.2001 14.786 6.57079 14.786ZM21.6783 6.57113C21.6783 10.2006 18.7363 13.143 15.1072 13.143C11.4778 13.143 8.53588 10.2006 8.53588 6.57113C8.53588 2.94238 11.4778 0 15.1072 0C18.7363 0 21.6783 2.94238 21.6783 6.57113Z" fill="#F06A6A"/>
</g>
<defs>
<clipPath id="clip0_141_2214">
<rect width="141.414" height="28" fill="white" transform="translate(-0.000488281)"/>
</clipPath>
</defs>
</svg>
