<svg width="171" height="28" viewBox="0 0 171 28" fill="none" xmlns="http://www.w3.org/2000/svg">
<path d="M7.16592 13.0918C6.85327 12.747 6.3843 12.7784 6.16545 13.1858L1.10057 23.3721C0.912983 23.7796 1.19437 24.2498 1.63207 24.2498H8.69789C8.91674 24.2498 9.1356 24.1244 9.22939 23.905C10.7926 20.7394 9.85469 15.9439 7.16592 13.0918Z" fill="#0052CC"/>
<path d="M10.8867 3.81385C8.04165 8.3272 8.22923 13.3107 10.1051 17.0718C11.981 20.833 13.4191 23.6851 13.513 23.9045C13.6068 24.1239 13.8256 24.2493 14.0444 24.2493H21.1102C21.548 24.2493 21.8606 23.7791 21.6418 23.3717C21.6418 23.3717 12.1373 4.31533 11.8872 3.84519C11.7308 3.40639 11.1681 3.37505 10.8867 3.81385Z" fill="#2684FF"/>
<path d="M106.932 19.2049C106.932 16.2273 105.337 14.8169 100.897 13.8453C98.4278 13.3125 97.8336 12.7483 97.8336 11.9647C97.8336 10.9931 98.7096 10.5543 100.335 10.5543C102.305 10.5543 104.243 11.1498 106.088 11.9961V8.07826C104.806 7.42006 102.805 6.91858 100.46 6.91858C96.0521 6.91858 93.7695 8.83048 93.7695 11.9961C93.7695 14.5035 94.9264 16.5094 99.4908 17.387C102.211 17.9512 102.774 18.39 102.774 19.2989C102.774 20.1765 102.211 20.7407 100.273 20.7407C98.0529 20.7407 95.3953 19.9885 93.6755 18.9542V23.06C95.0517 23.7496 96.8646 24.5018 100.242 24.5018C105.025 24.5018 106.932 22.3706 106.932 19.2049Z" fill="#0052CC"/>
<path d="M155.018 7.17004V24.2518H158.644V11.2446L160.176 14.6923L165.303 24.2518H169.868V7.17004H166.242V18.2027L164.866 15.0057L160.739 7.17004H155.018Z" fill="#0052CC"/>
<path d="M131.976 7.17004H128.005V24.2205H131.976V7.17004Z" fill="#0052CC"/>
<path d="M123.409 19.2049C123.409 16.2273 121.814 14.8169 117.374 13.8453C114.905 13.3125 114.311 12.7483 114.311 11.9647C114.311 10.9931 115.187 10.5543 116.812 10.5543C118.782 10.5543 120.72 11.1498 122.565 11.9961V8.07826C121.283 7.42006 119.282 6.91858 116.937 6.91858C112.529 6.91858 110.247 8.83048 110.247 11.9961C110.247 14.5035 111.403 16.5094 115.968 17.387C118.688 17.9512 119.251 18.39 119.251 19.2989C119.251 20.1765 118.688 20.7407 116.75 20.7407C114.53 20.7407 111.872 19.9885 110.153 18.9542V23.06C111.528 23.7496 113.342 24.5018 116.719 24.5018C121.533 24.5018 123.409 22.3706 123.409 19.2049Z" fill="#0052CC"/>
<path d="M63.0056 7.17004V24.2518H71.1344L72.4162 20.5534H66.9763V7.17004H63.0056Z" fill="#0052CC"/>
<path d="M46.9041 7.17004V10.8685H51.3123V24.2519H55.283V10.8685H60.0039V7.17004H46.9041Z" fill="#0052CC"/>
<path d="M41.1203 7.16907H35.8991L29.9587 24.2195H34.4921L35.3363 21.3359C36.3367 21.618 37.3997 21.8061 38.5253 21.8061C39.6196 21.8061 40.6826 21.6494 41.7143 21.3359L42.5584 24.2195H47.0918L41.1203 7.16907ZM38.4941 18.2957C37.7437 18.2957 36.9933 18.1704 36.3055 17.9823L38.4941 10.5227L40.6826 17.9823C39.9947 18.1704 39.2757 18.2957 38.4941 18.2957Z" fill="#0052CC"/>
<path d="M85.2037 7.16907H79.9825L74.0422 24.2195H78.5756L79.4198 21.336C80.4202 21.618 81.4832 21.8061 82.6087 21.8061C83.703 21.8061 84.7661 21.6494 85.7978 21.336L86.6419 24.2195H91.1752L85.2037 7.16907ZM82.5775 18.2957C81.8271 18.2957 81.0768 18.1704 80.389 17.9823L82.5775 10.5227L84.766 17.9823C84.0782 18.1704 83.3279 18.2957 82.5775 18.2957Z" fill="#0052CC"/>
<path d="M146.233 7.16907H141.011L135.071 24.2195H139.604L140.448 21.336C141.449 21.618 142.512 21.8061 143.637 21.8061C144.731 21.8061 145.794 21.6494 146.826 21.336L147.671 24.2195H152.204L146.233 7.16907ZM143.637 18.2957C142.887 18.2957 142.136 18.1704 141.449 17.9823L143.637 10.5227L145.826 17.9823C145.107 18.1704 144.388 18.2957 143.637 18.2957Z" fill="#0052CC"/>
</svg>
