<svg width="161" height="28" viewBox="0 0 161 28" fill="none" xmlns="http://www.w3.org/2000/svg">
<g clip-path="url(#clip0_141_2273)">
<path d="M42.5813 22.2494C41.4517 23.0006 39.6631 23.3136 37.7804 23.3136C31.8185 23.3136 28.4609 19.7453 28.4609 14.0172C28.4609 8.50813 31.8185 4.65808 37.749 4.65808C39.5062 4.65808 41.2948 5.00239 42.5813 5.91013V8.32032C41.2948 7.50649 39.8513 7.06828 37.749 7.06828C33.4815 7.06828 30.9712 9.88543 30.9712 14.0484C30.9712 18.2115 33.607 20.9661 37.9059 20.9661C39.82 20.9661 41.2948 20.5278 42.6127 19.8705V22.2494H42.5813Z" fill="#253858"/>
<path d="M44.3071 16.1457C44.3071 12.014 46.7234 9.00903 50.8653 9.00903C54.9759 9.00903 57.3921 12.014 57.3921 16.1457C57.3921 20.2775 54.9759 23.345 50.8653 23.345C46.7547 23.3137 44.3071 20.2775 44.3071 16.1457ZM46.6292 16.1457C46.6292 18.7751 47.9157 21.1226 50.8967 21.1226C53.8149 21.1226 55.1014 18.7438 55.1014 16.1457C55.1014 13.5477 53.8463 11.2001 50.8967 11.2001C47.9157 11.2001 46.6292 13.5164 46.6292 16.1457Z" fill="#253858"/>
<path d="M71.889 23.0632H69.5043V14.7371C69.5043 12.2643 68.5001 11.1687 66.2409 11.1687C64.0443 11.1687 62.5068 12.6399 62.5068 15.4258V23.0945H60.1221V9.32195H62.5068V11.5757C63.3854 9.94801 65.0171 9.04028 66.8684 9.04028C70.0377 9.04028 71.8577 11.2314 71.8577 15.0188V23.0632H71.889Z" fill="#253858"/>
<path d="M82.087 9.29075V11.4818H78.5099V23.0632H76.1879V11.4818H73.96V9.29075H76.1879V7.78827C76.1879 5.22157 77.6313 3.5 80.5809 3.5C81.3026 3.5 81.7733 3.6252 82.1812 3.71911V5.9102C81.7733 5.81629 81.2398 5.78499 80.675 5.78499C79.2002 5.78499 78.4785 6.63013 78.4785 7.88217V9.29075H82.087Z" fill="#253858"/>
<path d="M88.3313 23.1259C86.0721 23.1259 84.6287 22.0616 84.6287 19.5262V3.53125H87.0134V19.2445C87.0134 20.4966 87.8292 20.9348 88.8651 20.9348C89.1162 20.9348 89.2728 20.9348 89.5554 20.9034V23.032C89.3358 23.0945 88.9272 23.1259 88.3313 23.1259Z" fill="#253858"/>
<path d="M91.5635 9.29077H93.9479V17.6169C93.9479 20.0897 94.9524 21.1853 97.2116 21.1853C99.4079 21.1853 100.945 19.714 100.945 16.9283V9.29077H103.33V23.0633H100.945V20.8096C100.067 22.4373 98.4349 23.345 96.5834 23.345C93.4141 23.345 91.595 21.1539 91.595 17.3665V9.29077H91.5635Z" fill="#253858"/>
<path d="M113.497 23.3137C108.32 23.3137 106.061 20.3401 106.061 16.1145C106.061 11.9514 108.382 8.97778 112.587 8.97778C116.855 8.97778 118.549 11.9201 118.549 16.1145V17.1786H108.476C108.821 19.5263 110.328 21.0287 113.591 21.0287C115.191 21.0287 116.54 20.7157 117.796 20.2775V22.4686C116.635 23.0946 114.878 23.3137 113.497 23.3137ZM108.413 15.1754H116.133C116.008 12.6087 114.846 11.1689 112.461 11.1689C109.951 11.1689 108.665 12.7652 108.413 15.1754Z" fill="#253858"/>
<path d="M133.077 23.0632H130.693V14.7371C130.693 12.2643 129.688 11.1687 127.429 11.1687C125.233 11.1687 123.695 12.6399 123.695 15.4258V23.0945H121.31V9.32195H123.695V11.5757C124.574 9.94801 126.206 9.04028 128.056 9.04028C131.226 9.04028 133.046 11.2314 133.046 15.0188V23.0632H133.077Z" fill="#253858"/>
<path d="M146.162 22.6877C145.346 23.1259 144.06 23.3137 142.804 23.3137C137.878 23.3137 135.587 20.3401 135.587 16.1145C135.587 11.9514 137.878 8.97778 142.804 8.97778C144.06 8.97778 145.001 9.13423 146.1 9.63508V11.8262C145.22 11.4192 144.28 11.1689 142.993 11.1689C139.416 11.1689 137.941 13.4225 137.941 16.1145C137.941 18.8063 139.447 21.06 143.056 21.06C144.468 21.06 145.346 20.8722 146.193 20.5592V22.6877H146.162Z" fill="#253858"/>
<path d="M155.45 23.3137C150.273 23.3137 148.013 20.3401 148.013 16.1145C148.013 11.9514 150.336 8.97778 154.54 8.97778C158.807 8.97778 160.502 11.9201 160.502 16.1145V17.1786H150.429C150.775 19.5263 152.281 21.0287 155.545 21.0287C157.145 21.0287 158.494 20.7157 159.749 20.2775V22.4686C158.588 23.0946 156.862 23.3137 155.45 23.3137ZM150.399 15.1754H158.117C157.992 12.6087 156.831 11.1689 154.446 11.1689C151.905 11.1689 150.649 12.7652 150.399 15.1754Z" fill="#253858"/>
<path d="M1.06768 19.1603C0.879406 19.5103 0.628377 19.892 0.440106 20.2102C0.251834 20.4965 0.34597 20.8783 0.659756 21.0692L4.73898 23.6143C5.05276 23.8051 5.42931 23.7097 5.61757 23.3915C5.77447 23.1052 5.99412 22.7553 6.21377 22.3735C7.84545 19.6694 9.44576 19.9875 12.3954 21.4191L16.4432 23.3598C16.757 23.5188 17.1335 23.3598 17.2904 23.0416L19.2359 18.5877C19.3614 18.2695 19.2359 17.8878 18.9221 17.7605C18.0749 17.3469 16.3804 16.5516 14.8428 15.788C9.32028 13.1157 4.64483 13.2748 1.06768 19.1603Z" fill="#0052CC"/>
<path d="M19.3614 9.07529C19.5497 8.72536 19.8008 8.34359 19.989 8.02546C20.1773 7.73913 20.0831 7.35736 19.7694 7.16648L15.6901 4.62138C15.3763 4.4305 14.9998 4.52593 14.8115 4.84407C14.6546 5.1304 14.435 5.48035 14.2154 5.86212C12.5837 8.56629 10.9834 8.24816 8.03376 6.81653L4.01731 4.84407C3.70352 4.68501 3.32697 4.84407 3.17009 5.16221L1.22461 9.61613C1.0991 9.93428 1.22461 10.316 1.5384 10.4433C2.38562 10.8569 4.08006 11.6523 5.61762 12.4158C11.1089 15.12 15.7843 14.9609 19.3614 9.07529Z" fill="#0052CC"/>
</g>
<defs>
<clipPath id="clip0_141_2273">
<rect width="160.125" height="28" fill="white" transform="translate(0.377197)"/>
</clipPath>
</defs>
</svg>
