<svg width="149" height="28" viewBox="0 0 149 28" fill="none" xmlns="http://www.w3.org/2000/svg">
<g clip-path="url(#clip0_141_2199)">
<path d="M50.426 5.86963H58.3588C60.2708 5.86963 61.8883 6.16795 63.2114 6.76461C64.4296 7.27674 65.4639 8.14598 66.1782 9.25776C66.8468 10.3561 67.1895 11.6218 67.1662 12.9074C67.1809 14.1989 66.8249 15.4675 66.1404 16.5629C65.3769 17.72 64.2851 18.6225 63.0051 19.1548C61.6026 19.7941 59.864 20.1127 57.7892 20.1108H50.426V5.86963ZM57.7079 16.4873C58.9961 16.4873 59.986 16.1657 60.6776 15.5226C61.0282 15.1825 61.3022 14.7715 61.4811 14.3169C61.66 13.8624 61.7397 13.3749 61.7149 12.8871C61.7365 12.4342 61.6657 11.9817 61.5069 11.5571C61.348 11.1325 61.1044 10.7446 60.7909 10.4172C60.171 9.80114 59.2383 9.49216 57.9926 9.49022H55.5111V16.4873H57.7079Z" fill="#5865F2"/>
<path d="M79.045 20.0876C77.9985 19.8254 76.9974 19.4071 76.0753 18.8469V15.4704C76.8803 16.0559 77.7867 16.4874 78.7486 16.7431C79.801 17.0642 80.8942 17.2315 81.9944 17.24C82.3741 17.2602 82.7535 17.1947 83.1044 17.0482C83.3543 16.9203 83.4792 16.7576 83.4792 16.5891C83.4819 16.4949 83.4652 16.4012 83.4302 16.3137C83.3953 16.2263 83.3427 16.1469 83.2758 16.0806C83.0437 15.9021 82.7713 15.7833 82.4825 15.7348L80.0417 15.1856C78.643 14.8602 77.6502 14.4098 77.0633 13.8344C76.7686 13.5372 76.539 13.182 76.3889 12.7913C76.2388 12.4007 76.1716 11.983 76.1915 11.565C76.1817 10.8074 76.4577 10.0739 76.9645 9.51063C77.5653 8.87506 78.323 8.40902 79.1612 8.15945C80.24 7.82039 81.3665 7.65847 82.4971 7.68C83.5524 7.67009 84.6049 7.7931 85.6295 8.04612C86.4571 8.24221 87.2519 8.55738 87.989 8.98178V12.1781C87.2977 11.7771 86.5547 11.473 85.7806 11.2744C84.9419 11.0496 84.0773 10.9362 83.209 10.9374C81.9343 10.9374 81.297 11.1543 81.297 11.5883C81.2949 11.6849 81.3213 11.78 81.373 11.8617C81.4247 11.9433 81.4993 12.0079 81.5876 12.0474C81.9358 12.1954 82.3007 12.3008 82.6743 12.3612L84.7084 12.7273C86.0295 12.9598 87.0146 13.3666 87.6635 13.9477C88.3125 14.5289 88.6379 15.3793 88.6399 16.499C88.6502 17.0878 88.5062 17.669 88.2223 18.1849C87.9383 18.7008 87.5243 19.1334 87.0214 19.4396C85.9501 20.1583 84.4207 20.5167 82.4331 20.5148C81.2902 20.5165 80.1517 20.373 79.045 20.0876Z" fill="#5865F2"/>
<path d="M93.446 19.6605C92.3585 19.1608 91.442 18.3524 90.8105 17.3359C90.2213 16.339 89.9196 15.1985 89.9387 14.0407C89.9212 12.8836 90.2391 11.7462 90.854 10.7659C91.5095 9.76533 92.4426 8.97766 93.539 8.49941C94.872 7.91856 96.3162 7.63687 97.7698 7.67417C99.8038 7.67417 101.492 8.10132 102.835 8.95562V12.6837C102.324 12.3404 101.766 12.0732 101.178 11.8904C100.52 11.6828 99.834 11.5798 99.1442 11.5853C97.8831 11.5853 96.8961 11.8159 96.1832 12.2769C95.8628 12.4558 95.5954 12.7163 95.4083 13.032C95.2212 13.3478 95.1211 13.7074 95.1182 14.0744C95.1152 14.4414 95.2095 14.8026 95.3915 15.1213C95.5735 15.44 95.8366 15.7048 96.1542 15.8888C96.8457 16.3556 97.8492 16.5891 99.1645 16.5891C99.8435 16.5907 100.519 16.4928 101.17 16.2985C101.763 16.1284 102.333 15.8853 102.866 15.575V19.1781C101.294 20.0948 99.4993 20.5594 97.6797 20.5206C96.2213 20.5604 94.7732 20.2662 93.446 19.6605Z" fill="#5865F2"/>
<path d="M107.899 19.6604C106.8 19.1583 105.867 18.3516 105.212 17.3358C104.594 16.3413 104.273 15.1909 104.287 14.0203C104.268 12.8635 104.589 11.7266 105.212 10.7513C105.87 9.76137 106.799 8.98089 107.888 8.50226C110.562 7.41738 113.553 7.41738 116.227 8.50226C117.312 8.97724 118.237 9.75389 118.892 10.7397C119.51 11.7186 119.828 12.857 119.807 14.0145C119.822 15.184 119.504 16.3336 118.892 17.33C118.244 18.3465 117.315 19.1538 116.219 19.6546C114.904 20.2183 113.489 20.5089 112.059 20.5089C110.629 20.5089 109.214 20.2183 107.899 19.6546V19.6604ZM114.08 16.0514C114.331 15.792 114.527 15.4839 114.655 15.1461C114.783 14.8084 114.84 14.448 114.824 14.0871C114.841 13.7297 114.784 13.3725 114.656 13.0383C114.528 12.7041 114.332 12.4003 114.08 12.1461C113.807 11.8954 113.486 11.7022 113.136 11.5779C112.787 11.4537 112.416 11.4008 112.046 11.4226C111.676 11.4031 111.306 11.457 110.957 11.5812C110.608 11.7054 110.286 11.8973 110.012 12.1461C109.761 12.4008 109.565 12.7048 109.438 13.0389C109.31 13.373 109.253 13.73 109.271 14.0871C109.255 14.4477 109.312 14.8078 109.439 15.1455C109.567 15.4832 109.761 15.7915 110.012 16.0514C110.284 16.3052 110.604 16.5016 110.953 16.6289C111.303 16.7562 111.674 16.8118 112.046 16.7924C112.418 16.814 112.79 16.7595 113.139 16.632C113.489 16.5046 113.809 16.307 114.08 16.0514Z" fill="#5865F2"/>
<path d="M132.032 8.42667V12.826C131.424 12.4636 130.724 12.2869 130.018 12.3175C128.934 12.3175 128.097 12.6488 127.516 13.3055C126.935 13.9622 126.644 14.9821 126.644 16.3652V20.1079H121.661V8.20874H126.543V11.9862C126.814 10.6031 127.252 9.58317 127.856 8.92647C128.149 8.60354 128.509 8.34799 128.91 8.17743C129.311 8.00687 129.745 7.92536 130.181 7.93851C130.832 7.92075 131.474 8.09018 132.032 8.42667Z" fill="#5865F2"/>
<path d="M148.589 5.46289V20.108H143.605V17.4347C143.23 18.3864 142.554 19.1901 141.682 19.7244C140.718 20.2732 139.623 20.5467 138.515 20.5148C137.472 20.5391 136.445 20.2528 135.565 19.6924C134.713 19.1389 134.034 18.3564 133.607 17.4347C133.14 16.4172 132.908 15.3081 132.927 14.1889C132.894 13.0286 133.141 11.8774 133.647 10.8328C134.113 9.87595 134.839 9.07012 135.742 8.50814C136.671 7.9455 137.74 7.65643 138.825 7.67418C141.197 7.67418 142.79 8.70476 143.605 10.7659V5.46289H148.589ZM142.873 15.9818C143.127 15.7318 143.326 15.4316 143.458 15.1005C143.589 14.7693 143.651 14.4143 143.637 14.0582C143.648 13.7127 143.586 13.3689 143.454 13.0493C143.322 12.7298 143.124 12.4418 142.873 12.2043C142.303 11.7401 141.59 11.4867 140.855 11.4867C140.12 11.4867 139.407 11.7401 138.837 12.2043C138.587 12.4472 138.39 12.7402 138.261 13.0641C138.131 13.3881 138.071 13.7357 138.084 14.0843C138.072 14.4362 138.133 14.7869 138.264 15.1137C138.395 15.4406 138.593 15.7363 138.846 15.9818C139.113 16.2299 139.427 16.4223 139.769 16.5475C140.111 16.6728 140.475 16.7284 140.839 16.7111C141.21 16.7316 141.581 16.6776 141.93 16.5523C142.279 16.4271 142.6 16.2331 142.873 15.9818Z" fill="#5865F2"/>
<path d="M32.0761 2.34496C29.6489 1.2337 27.0864 0.445332 24.4543 0C24.0941 0.643884 23.7682 1.30636 23.4779 1.98464C20.6742 1.56215 17.823 1.56215 15.0193 1.98464C14.7288 1.30643 14.4029 0.643962 14.0429 0C11.4091 0.449093 8.84497 1.23933 6.41527 2.35077C1.59169 9.48734 0.284091 16.4467 0.93789 23.3072C3.7627 25.3943 6.92446 26.9815 10.2858 28C11.0426 26.982 11.7123 25.9021 12.2878 24.7717C11.1948 24.3634 10.1398 23.8598 9.13507 23.2665C9.39949 23.0747 9.65811 22.8771 9.908 22.6853C12.8315 24.0602 16.0223 24.773 19.253 24.773C22.4836 24.773 25.6744 24.0602 28.5979 22.6853C28.8507 22.8917 29.1093 23.0892 29.3708 23.2665C28.3642 23.8607 27.3073 24.3654 26.2123 24.7746C26.7871 25.9045 27.4568 26.9835 28.2144 28C31.5785 26.9856 34.7427 25.3991 37.568 23.3101C38.3352 15.3541 36.2575 8.4587 32.0761 2.34496ZM13.116 19.088C11.2941 19.088 9.78887 17.4346 9.78887 15.4006C9.78887 13.3665 11.2418 11.6986 13.1102 11.6986C14.9786 11.6986 16.4721 13.3665 16.4402 15.4006C16.4082 17.4346 14.9728 19.088 13.116 19.088ZM25.3899 19.088C23.5651 19.088 22.0657 17.4346 22.0657 15.4006C22.0657 13.3665 23.5186 11.6986 25.3899 11.6986C27.2613 11.6986 28.7432 13.3665 28.7112 15.4006C28.6793 17.4346 27.2467 19.088 25.3899 19.088Z" fill="#5865F2"/>
<path d="M71.368 9.47571C72.7401 9.47571 73.8524 8.47658 73.8524 7.24408C73.8524 6.01159 72.7401 5.01245 71.368 5.01245C69.9959 5.01245 68.8835 6.01159 68.8835 7.24408C68.8835 8.47658 69.9959 9.47571 71.368 9.47571Z" fill="#5865F2"/>
<path d="M68.8806 11.0128C69.6676 11.3436 70.5128 11.514 71.3665 11.514C72.2202 11.514 73.0654 11.3436 73.8524 11.0128V20.1718H68.8806V11.0128Z" fill="#5865F2"/>
</g>
<defs>
<clipPath id="clip0_141_2199">
<rect width="147.808" height="28" fill="white" transform="translate(0.781006)"/>
</clipPath>
</defs>
</svg>
