<svg width="67" height="28" viewBox="0 0 67 28" fill="none" xmlns="http://www.w3.org/2000/svg">
<g clip-path="url(#clip0_141_2262)">
<path d="M34.3687 5.36694H36.8467V17.6145C36.8467 20.8439 35.3724 23.0985 31.9534 23.0985C30.6673 23.0985 29.6635 22.8852 28.9734 22.6414V20.2956C29.7262 20.6002 30.6359 20.7526 31.5455 20.7526C33.6472 20.7526 34.3687 19.5339 34.3687 17.7668V5.36694Z" fill="#253858"/>
<path d="M41.3952 4.42249C42.3676 4.42249 43.0577 5.00135 43.0577 6.03721C43.0577 7.04261 42.3676 7.65194 41.3952 7.65194C40.4227 7.65194 39.7327 7.07308 39.7327 6.03721C39.7327 5.03182 40.4227 4.42249 41.3952 4.42249ZM40.1718 9.57132H42.5558V22.9767H40.1718V9.57132Z" fill="#253858"/>
<path d="M48.4529 22.9767H46.1316V9.57138H48.4529V11.9173C49.2684 10.3331 50.6486 9.2058 53.3462 9.35814V11.6127C50.3036 11.308 48.4529 12.1915 48.4529 15.0554V22.9767Z" fill="#253858"/>
<path d="M64.4816 20.5697C63.6034 22.3368 61.9409 23.2507 59.8078 23.2507C56.1378 23.2507 54.2871 20.2346 54.2871 16.2739C54.2871 12.496 56.2319 9.29712 60.0902 9.29712C62.0977 9.29712 63.6661 10.1806 64.4816 11.9172V9.57126H66.8657V22.9766H64.4816V20.5697ZM60.4352 21.1181C62.5683 21.1181 64.4503 19.8081 64.4503 16.8223V15.756C64.4503 12.7703 62.7251 11.4602 60.6862 11.4602C58.0199 11.4602 56.6397 13.1664 56.6397 16.2739C56.671 19.5034 57.9885 21.1181 60.4352 21.1181Z" fill="#253858"/>
<path d="M21.9155 2.625H11.0623C11.0623 5.24513 13.258 7.37779 15.9556 7.37779H17.9631V9.23624C17.9631 11.8563 20.1589 13.9891 22.8566 13.9891V3.539C22.8566 3.02107 22.4488 2.625 21.9155 2.625Z" fill="#2684FF"/>
<path d="M16.5515 7.86523H5.69824C5.69824 10.4854 7.89399 12.618 10.5917 12.618H12.5992V14.5069C12.5992 17.127 14.795 19.2598 17.4926 19.2598V8.7792C17.4926 8.29176 17.0848 7.86523 16.5515 7.86523Z" fill="#0052CC"/>
<path d="M11.1878 13.136H0.334473C0.334473 15.7561 2.53022 17.8887 5.22787 17.8887H7.23541V19.7472C7.23541 22.3673 9.43115 24.5 12.1288 24.5V14.0499C12.1288 13.532 11.6897 13.136 11.1878 13.136Z" fill="#0052CC"/>
</g>
<defs>
<clipPath id="clip0_141_2262">
<rect width="66.5" height="28" fill="white" transform="translate(0.334473)"/>
</clipPath>
</defs>
</svg>
