<svg width="61" height="60" viewBox="0 0 61 60" fill="none" xmlns="http://www.w3.org/2000/svg">
<path d="M7.54336 49.4126C6.43879 49.4126 5.54336 48.5172 5.54336 47.4126V38.3046C5.54336 35.1101 6.12654 31.7886 7.29292 28.3401C8.49463 24.8552 10.1205 21.57 12.1705 18.4844C13.9487 15.8223 15.9069 13.5166 18.0449 11.5671C18.6983 10.9714 19.6729 10.925 20.4087 11.4153L26.4353 15.4312C27.345 16.0374 27.5964 17.26 27.0335 18.1972C25.4007 20.9157 23.9985 23.7341 22.8269 26.6521C21.4484 30.1369 20.7769 33.9848 20.8122 38.1957V47.4126C20.8122 48.5172 19.9168 49.4126 18.8122 49.4126H7.54336ZM34.4229 49.4126C33.3184 49.4126 32.4229 48.5172 32.4229 47.4126V38.3046C32.4229 35.1101 33.0061 31.7886 34.1725 28.3401C35.3742 24.8552 37.0001 21.57 39.05 18.4844C40.8283 15.8223 42.7864 13.5166 44.9245 11.5671C45.5778 10.9714 46.5525 10.925 47.2882 11.4153L53.3149 15.4312C54.2246 16.0374 54.4759 17.26 53.9131 18.1972C52.2803 20.9158 50.8781 23.7341 49.7064 26.6521C48.328 30.1369 47.6564 33.9848 47.6918 38.1957V47.4126C47.6918 48.5172 46.7964 49.4126 45.6918 49.4126H34.4229Z" fill="url(#paint0_linear_11_133)"/>
<defs>
<linearGradient id="paint0_linear_11_133" x1="30.2492" y1="10.5891" x2="30.2492" y2="49.4126" gradientUnits="userSpaceOnUse">
<stop stop-color="#1976D2"/>
<stop offset="1" stop-color="#CCE0FF" stop-opacity="0"/>
<stop offset="1" stop-color="#1976D2" stop-opacity="0"/>
<stop offset="1" stop-color="#1976D2" stop-opacity="0"/>
</linearGradient>
</defs>
</svg>
