<svg width="50" height="39" viewBox="0 0 50 39" fill="none" xmlns="http://www.w3.org/2000/svg">
<path d="M2.54336 38.4126C1.43879 38.4126 0.543358 37.5172 0.543358 36.4126V27.3046C0.543358 24.1101 1.12654 20.7886 2.29292 17.3401C3.49463 13.8552 5.12048 10.57 7.17047 7.48444C8.94871 4.82232 10.9069 2.51655 13.0449 0.567133C13.6983 -0.028572 14.6729 -0.0749774 15.4087 0.415306L21.4353 4.43124C22.345 5.03743 22.5964 6.26002 22.0335 7.19716C20.4007 9.91575 18.9985 12.7341 17.8269 15.6521C16.4484 19.1369 15.7769 22.9848 15.8122 27.1957V36.4126C15.8122 37.5172 14.9168 38.4126 13.8122 38.4126H2.54336ZM29.4229 38.4126C28.3184 38.4126 27.4229 37.5172 27.4229 36.4126V27.3046C27.4229 24.1101 28.0061 20.7886 29.1725 17.3401C30.3742 13.8552 32.0001 10.57 34.05 7.48444C35.8283 4.82232 37.7864 2.51655 39.9245 0.567133C40.5778 -0.0285722 41.5525 -0.0749775 42.2882 0.415306L48.3149 4.43125C49.2246 5.03744 49.4759 6.26002 48.9131 7.19716C47.2803 9.91575 45.8781 12.7341 44.7064 15.6521C43.328 19.1369 42.6564 22.9848 42.6918 27.1957V36.4126C42.6918 37.5172 41.7964 38.4126 40.6918 38.4126H29.4229Z" fill="url(#paint0_linear_11_134)"/>
<defs>
<linearGradient id="paint0_linear_11_134" x1="25.2492" y1="-0.41095" x2="25.2492" y2="38.4126" gradientUnits="userSpaceOnUse">
<stop stop-color="#FFC107"/>
<stop offset="1" stop-color="#CCE0FF" stop-opacity="0"/>
<stop offset="1" stop-color="#1976D2" stop-opacity="0"/>
<stop offset="1" stop-color="#FFC107" stop-opacity="0"/>
</linearGradient>
</defs>
</svg>
