<svg width="112" height="28" viewBox="0 0 112 28" fill="none" xmlns="http://www.w3.org/2000/svg">
<path d="M36.3596 22.0485L37.7418 18.8382C39.2355 19.9529 41.2197 20.5325 43.1816 20.5325C44.6307 20.5325 45.5447 19.9752 45.5447 19.128C45.5224 16.7648 36.8724 18.6152 36.8055 12.6851C36.7832 9.67538 39.4585 7.35681 43.2484 7.35681C45.5001 7.35681 47.7518 7.91416 49.357 9.18491L48.0639 12.4621C46.5925 11.5258 44.7644 10.857 43.0255 10.857C41.8439 10.857 41.0636 11.4143 41.0636 12.1277C41.0859 14.4463 49.8029 13.1755 49.892 18.8382C49.892 21.9147 47.2836 24.0773 43.5383 24.0773C40.7961 24.0773 38.2769 23.4307 36.3596 22.0485Z" fill="black"/>
<path d="M89.3967 17.6789C88.7056 18.8828 87.4125 19.7076 85.9188 19.7076C83.7117 19.7076 81.9282 17.9241 81.9282 15.717C81.9282 13.5099 83.7117 11.7264 85.9188 11.7264C87.4125 11.7264 88.7056 12.5513 89.3967 13.7552L93.2089 11.6372C91.7821 9.09574 89.04 7.35681 85.9188 7.35681C81.304 7.35681 77.5586 11.1022 77.5586 15.717C77.5586 20.3319 81.304 24.0773 85.9188 24.0773C89.0623 24.0773 91.7821 22.3606 93.2089 19.7968L89.3967 17.6789Z" fill="black"/>
<path d="M56.5802 0.423584H51.8093V23.7653H56.5802V0.423584Z" fill="black"/>
<path d="M95.0818 0.423584V23.7653H99.8527V16.765L105.515 23.7653H111.624L104.423 15.4497L111.089 7.69141H105.248L99.8527 14.1344V0.423584H95.0818Z" fill="black"/>
<path d="M70.7591 17.7235C70.068 18.8605 68.6412 19.7076 67.0361 19.7076C64.829 19.7076 63.0454 17.9241 63.0454 15.717C63.0454 13.5099 64.829 11.7264 67.0361 11.7264C68.6412 11.7264 70.068 12.6182 70.7591 13.7775V17.7235ZM70.7591 7.69122V9.5862C69.9789 8.27086 68.0393 7.35681 66.0105 7.35681C61.8193 7.35681 58.5198 11.0576 58.5198 15.6947C58.5198 20.3319 61.8193 24.0773 66.0105 24.0773C68.0393 24.0773 69.9789 23.1632 70.7591 21.8479V23.7429H75.53V7.69122H70.7591Z" fill="black"/>
<path d="M6.86485 17.7002C6.86485 19.3277 5.5495 20.643 3.92205 20.643C2.29459 20.643 0.979248 19.3277 0.979248 17.7002C0.979248 16.0728 2.29459 14.7574 3.92205 14.7574H6.86485V17.7002Z" fill="#E01E5A"/>
<path d="M8.33618 17.7002C8.33618 16.0728 9.65152 14.7574 11.279 14.7574C12.9064 14.7574 14.2218 16.0728 14.2218 17.7002V25.0572C14.2218 26.6847 12.9064 28 11.279 28C9.65152 28 8.33618 26.6847 8.33618 25.0572V17.7002Z" fill="#E01E5A"/>
<path d="M11.2785 5.8856C9.65103 5.8856 8.33569 4.57026 8.33569 2.9428C8.33569 1.31534 9.65103 0 11.2785 0C12.9059 0 14.2213 1.31534 14.2213 2.9428V5.8856H11.2785Z" fill="#36C5F0"/>
<path d="M11.2786 7.37915C12.9061 7.37915 14.2214 8.69449 14.2214 10.322C14.2214 11.9494 12.9061 13.2647 11.2786 13.2647H3.89934C2.27189 13.2647 0.956543 11.9494 0.956543 10.322C0.956543 8.69449 2.27189 7.37915 3.89934 7.37915H11.2786Z" fill="#36C5F0"/>
<path d="M23.0725 10.322C23.0725 8.69449 24.3879 7.37915 26.0153 7.37915C27.6428 7.37915 28.9581 8.69449 28.9581 10.322C28.9581 11.9494 27.6428 13.2647 26.0153 13.2647H23.0725V10.322Z" fill="#2EB67D"/>
<path d="M21.6012 10.3221C21.6012 11.9495 20.2858 13.2649 18.6584 13.2649C17.0309 13.2649 15.7156 11.9495 15.7156 10.3221V2.9428C15.7156 1.31534 17.0309 0 18.6584 0C20.2858 0 21.6012 1.31534 21.6012 2.9428V10.3221Z" fill="#2EB67D"/>
<path d="M18.6584 22.1145C20.2858 22.1145 21.6012 23.4298 21.6012 25.0573C21.6012 26.6848 20.2858 28.0001 18.6584 28.0001C17.0309 28.0001 15.7156 26.6848 15.7156 25.0573V22.1145H18.6584Z" fill="#ECB22E"/>
<path d="M18.6584 20.643C17.0309 20.643 15.7156 19.3277 15.7156 17.7002C15.7156 16.0728 17.0309 14.7574 18.6584 14.7574H26.0377C27.6651 14.7574 28.9805 16.0728 28.9805 17.7002C28.9805 19.3277 27.6651 20.643 26.0377 20.643H18.6584Z" fill="#ECB22E"/>
</svg>
