<svg width="112" height="28" viewBox="0 0 112 28" fill="none" xmlns="http://www.w3.org/2000/svg">
<g clip-path="url(#clip0_141_2212)">
<path d="M36.0785 10.9493C36.0785 8.95229 34.1365 6.83128 30.776 6.83128C27.0022 6.83128 22.8566 9.59961 22.2231 15.1225C21.5758 20.7004 25.0465 23.1795 28.5448 23.1795C32.0431 23.1795 33.8748 21.816 35.7479 19.998C34.1365 17.9734 32.0568 18.91 31.6574 19.1166C31.2167 19.3369 30.652 19.6399 29.4951 19.6399C28.1454 19.6399 26.7681 19.0339 26.7681 16.5135C35.4174 15.6596 36.0785 12.9464 36.0785 10.9493ZM31.7951 11.2799C31.74 11.8997 31.4921 12.9602 27.1124 13.5524C28.0352 10.2745 29.7981 10.0266 30.6107 10.0266C31.3682 10.0266 31.8502 10.6188 31.7951 11.2799ZM17.1409 11.817C17.1409 11.817 15.2816 17.6567 15.1301 18.1387C15.075 17.6429 13.7115 7.16183 13.7115 7.16183C10.5438 7.16183 8.84974 9.42056 7.95451 11.8032C7.95451 11.8032 5.69578 17.6567 5.50296 18.1525C5.48919 17.698 5.15865 11.8721 5.15865 11.8721C4.96583 8.95229 2.29391 7.1756 0.131592 7.1756L2.74841 23.0556C6.06765 23.0418 7.8581 20.7969 8.79465 18.4142C8.79465 18.4142 10.7917 13.2494 10.8743 13.0152C10.8881 13.2356 12.3067 23.0556 12.3067 23.0556C15.6397 23.0556 17.4302 20.9484 18.3943 18.6483L23.0632 7.1756C19.7715 7.1756 18.0362 9.42056 17.1409 11.817ZM48.3087 6.80374C46.2565 6.80374 44.6864 7.91933 43.3642 9.55829V9.54452L44.5487 0C41.8217 0 39.6043 2.36891 39.1773 5.89474L37.1114 22.9316C38.6815 22.9316 40.348 22.4771 41.2432 21.3202C42.0421 22.3532 43.2403 23.1795 45.017 23.1795C49.6171 23.1795 52.771 17.8357 52.771 12.8224C52.7435 8.24988 50.5261 6.80374 48.3087 6.80374ZM47.8817 14.9985C47.3997 17.7944 45.8433 19.695 44.3421 19.695C42.8271 19.695 42.1798 19.0202 42.1798 19.0202C42.469 16.5686 42.6481 15.0674 43.199 13.7727C43.7499 12.4781 45.0583 10.4122 46.4218 10.4122C47.7578 10.4122 48.3638 12.1889 47.8817 14.9985ZM64.2575 7.1756H61.0485L61.0622 7.01033C61.2826 4.91687 61.7784 3.81505 63.4174 3.63601C64.533 3.52582 65.0288 2.94737 65.1527 2.31382C65.2491 1.818 65.5521 0.0964092 65.5521 0.0964092C59.1065 0.055091 57.0819 2.83719 56.5585 7.07919L56.5448 7.1756H56.4759C55.4292 7.1756 54.2723 8.36006 54.0794 9.86129L54.0106 10.4122H56.1591L54.3549 25.3143L53.804 27.9862C53.8729 27.9862 53.9555 28 54.0244 28C57.0406 27.8898 58.9688 25.5071 59.3957 22.0502L60.8005 10.4122H61.806C62.7976 10.4122 63.9545 9.42056 64.1611 7.76783L64.2575 7.1756ZM80.9501 6.90015C77.2452 6.90015 73.7469 9.62715 72.6727 13.9105C71.5984 18.1938 73.2236 23.2622 78.6776 23.2622C84.1178 23.2622 87.258 17.9872 87.258 13.5937C87.258 9.22774 84.2969 6.90015 80.9501 6.90015ZM82.4513 14.8608C82.2585 16.8028 81.4046 19.7501 79.0632 19.7501C76.7081 19.7501 77.0386 16.3069 77.2728 14.668C77.5207 12.9188 78.4985 10.426 80.6058 10.426C82.4926 10.426 82.6717 12.6709 82.4513 14.8608ZM105.562 11.817C105.562 11.817 103.703 17.6567 103.551 18.1387C103.496 17.6429 102.133 7.16183 102.133 7.16183C98.9648 7.16183 97.2708 9.42056 96.3756 11.8032C96.3756 11.8032 94.1168 17.6567 93.924 18.1525C93.9102 17.698 93.5797 11.8721 93.5797 11.8721C93.3869 8.95229 90.715 7.1756 88.5526 7.1756L91.1557 23.0556C94.4749 23.0418 96.2654 20.7969 97.2019 18.4142C97.2019 18.4142 99.199 13.2494 99.2678 13.0152C99.2816 13.2356 100.7 23.0556 100.7 23.0556C104.033 23.0556 105.824 20.9484 106.788 18.6483L111.457 7.1756C108.179 7.1756 106.443 9.42056 105.562 11.817ZM67.2875 0.0964092L64.5881 21.8711L64.0371 24.5568C64.106 24.5568 64.1886 24.5706 64.2575 24.5706C67.1636 24.5293 69.2295 21.9813 69.6151 18.7723L71.1714 6.28037C71.6397 2.46532 69.3672 0.0964092 67.2875 0.0964092Z" fill="#4353FF"/>
</g>
<defs>
<clipPath id="clip0_141_2212">
<rect width="111.325" height="28" fill="white" transform="translate(0.131592)"/>
</clipPath>
</defs>
</svg>
